<?xml version="1.0" encoding="utf-8"?>
<!-- Generator: Adobe Illustrator 23.1.0, SVG Export Plug-In . SVG Version: 6.00 Build 0)  -->
<svg version="1.1" id="Layer_1" xmlns="http://www.w3.org/2000/svg" xmlns:xlink="http://www.w3.org/1999/xlink" x="0px" y="0px"
	 viewBox="0 0 674.4 182.17" style="enable-background:new 0 0 674.4 182.17;" xml:space="preserve">
<style type="text/css">
	
		.st0{clip-path:url(#SVGID_2_);fill:none;stroke:#333333;stroke-width:6;stroke-linecap:round;stroke-linejoin:round;stroke-miterlimit:10;}
	.st1{clip-path:url(#SVGID_2_);fill:#009944;}
	
		.st2{clip-path:url(#SVGID_2_);fill:none;stroke:#333333;stroke-width:3;stroke-linecap:round;stroke-linejoin:round;stroke-miterlimit:10;}
	.st3{clip-path:url(#SVGID_2_);fill:#333333;}
	.st4{clip-path:url(#SVGID_2_);fill:none;stroke:#333333;stroke-miterlimit:10;}
	.st5{clip-path:url(#SVGID_2_);fill:none;stroke:#333333;stroke-linecap:round;stroke-linejoin:round;stroke-miterlimit:10;}
	.st6{clip-path:url(#SVGID_2_);fill:#FFFFFF;}
	.st7{clip-path:url(#SVGID_2_);fill:none;stroke:#333333;stroke-width:6;stroke-miterlimit:10;}
	.st8{clip-path:url(#SVGID_2_);fill:#FFE200;}
	.st9{clip-path:url(#SVGID_2_);}
	.st10{fill:#333333;}
	.st11{font-family:'MaruBuri-Bold';}
	.st12{font-size:32px;}
</style>
<g>
	<defs>
		<rect id="SVGID_1_" width="674.4" height="182.17"/>
	</defs>
	<clipPath id="SVGID_2_">
		<use xlink:href="#SVGID_1_"  style="overflow:visible;"/>
	</clipPath>
	<path class="st0" d="M347.32,110.83c28.69-13.16,52.64-39.73,57.14-71.76"/>
	<path class="st1" d="M382.34,83.31c0,0-13.84-11.6-0.64-26.92C381.7,56.39,397.58,65.62,382.34,83.31"/>
	<path class="st2" d="M382.34,83.31c0,0-13.84-11.6-0.64-26.92C381.7,56.39,397.58,65.62,382.34,83.31z"/>
	<path class="st1" d="M396.87,57.39c0,0-16.63-7.02-8.52-25.54C388.34,31.84,406.23,36,396.87,57.39"/>
	<path class="st2" d="M396.87,57.39c0,0-16.63-7.02-8.52-25.54C388.34,31.84,406.23,36,396.87,57.39z"/>
	<path class="st1" d="M394.6,71.94c0,0,4.8-17.4,24.22-11.77C418.82,60.17,417.02,78.45,394.6,71.94"/>
	<path class="st2" d="M394.6,71.94c0,0,4.8-17.4,24.22-11.77C418.82,60.17,417.02,78.45,394.6,71.94z"/>
	<path class="st1" d="M403.09,47.83c0,0,0.38-18.05,20.59-17.35C423.68,30.48,426.42,48.63,403.09,47.83"/>
	<path class="st2" d="M403.09,47.83c0,0,0.38-18.05,20.59-17.35C423.68,30.48,426.42,48.63,403.09,47.83z"/>
	<path class="st3" d="M388.2,58.1c6.35,5.6,11.19,12.73,14.52,21.39c3.33,8.66,5,18.46,5,29.4c0,11.59-1.93,22.27-5.79,32.03
		c-3.86,9.77-9.18,17.58-15.95,23.44c-3.6,3.13-7.17,5.57-10.71,7.32c-3.55,1.76-6.83,3.06-9.84,3.91c-3.02,0.85-5.66,1.4-7.94,1.66
		c-2.27,0.26-3.94,0.39-5,0.39h-44.76c-0.32-1.04-0.5-2.28-0.55-3.71c-0.05-1.43,0.13-2.47,0.55-3.13c0.1-0.13,0.42-0.36,0.95-0.68
		c0.53-0.32,1.14-0.62,1.83-0.88c0.69-0.26,1.37-0.52,2.06-0.78c0.69-0.26,1.29-0.46,1.83-0.59c0.85-0.26,1.51-0.55,1.98-0.88
		c0.48-0.32,0.77-0.81,0.87-1.46c0.1-1.3,0.18-2.83,0.24-4.59c0.05-1.76,0.08-3.52,0.08-5.27v-4.98v-3.91V55.36
		c-2.75-0.65-5.21-1.33-7.38-2.05c-2.17-0.71-3.25-1.2-3.25-1.47c0-0.91,0.05-2.05,0.16-3.42c0.1-1.37,0.37-2.57,0.79-3.61h35.24
		c3.07,0,6.43,0.07,10.08,0.2c3.65,0.13,7.46,0.62,11.43,1.47c3.97,0.85,7.96,2.18,11.98,4C380.63,52.31,384.5,54.84,388.2,58.1
		 M349.15,167.48c6.45,0,12.54-1.24,18.25-3.74c5.71-2.49,10.66-6.16,14.84-11.01c4.18-4.85,7.49-10.72,9.92-17.6
		c2.43-6.88,3.65-14.78,3.65-23.69c0-9.44-1.14-18.02-3.41-25.76c-2.28-7.73-6.01-14.16-11.19-19.27c-3.07-3.01-6.19-5.34-9.37-6.98
		c-3.17-1.64-6.32-2.85-9.44-3.64c-3.12-0.79-3.94-1.18-9.37-1.38c-5.42-0.2-6.22-0.2-9.29-0.2h-14.92v113.26H349.15z"/>
	<path class="st4" d="M388.2,58.1c6.35,5.6,11.19,12.73,14.52,21.39c3.33,8.66,5,18.46,5,29.4c0,11.59-1.93,22.27-5.79,32.03
		c-3.86,9.77-9.18,17.58-15.95,23.44c-3.6,3.13-7.17,5.57-10.71,7.32c-3.55,1.76-6.83,3.06-9.84,3.91c-3.02,0.85-5.66,1.4-7.94,1.66
		c-2.27,0.26-3.94,0.39-5,0.39h-44.76c-0.32-1.04-0.5-2.28-0.55-3.71c-0.05-1.43,0.13-2.47,0.55-3.13c0.1-0.13,0.42-0.36,0.95-0.68
		c0.53-0.32,1.14-0.62,1.83-0.88c0.69-0.26,1.37-0.52,2.06-0.78c0.69-0.26,1.29-0.46,1.83-0.59c0.85-0.26,1.51-0.55,1.98-0.88
		c0.48-0.32,0.77-0.81,0.87-1.46c0.1-1.3,0.18-2.83,0.24-4.59c0.05-1.76,0.08-3.52,0.08-5.27v-4.98v-3.91V55.36
		c-2.75-0.65-5.21-1.33-7.38-2.05c-2.17-0.71-3.25-1.2-3.25-1.47c0-0.91,0.05-2.05,0.16-3.42c0.1-1.37,0.37-2.57,0.79-3.61h35.24
		c3.07,0,6.43,0.07,10.08,0.2c3.65,0.13,7.46,0.62,11.43,1.47c3.97,0.85,7.96,2.18,11.98,4C380.63,52.31,384.5,54.84,388.2,58.1z
		 M349.15,167.48c6.45,0,12.54-1.24,18.25-3.74c5.71-2.49,10.66-6.16,14.84-11.01c4.18-4.85,7.49-10.72,9.92-17.6
		c2.43-6.88,3.65-14.78,3.65-23.69c0-9.44-1.14-18.02-3.41-25.76c-2.28-7.73-6.01-14.16-11.19-19.27c-3.07-3.01-6.19-5.34-9.37-6.98
		c-3.17-1.64-6.32-2.85-9.44-3.64c-3.12-0.79-3.94-1.18-9.37-1.38c-5.42-0.2-6.22-0.2-9.29-0.2h-14.92v113.26H349.15z"/>
	<path class="st3" d="M307.63,45.07c0,0,32.83-5.05,54.54-5.05s33.4,14.46,33.4,14.46L307.63,45.07z"/>
	<path class="st5" d="M307.63,45.07c0,0,32.83-5.05,54.54-5.05s33.4,14.46,33.4,14.46L307.63,45.07z"/>
	<path class="st3" d="M405.73,73.6c0.53,0.15,2.41,21.62,1.87,37.65c-0.55,16.03-4.23,30.45-12.88,43.2"/>
	<path class="st4" d="M405.73,73.6c0.53,0.15,2.41,21.62,1.87,37.65c-0.55,16.03-4.23,30.45-12.88,43.2"/>
	<path class="st3" d="M394.98,53.85c0,0,11.43,8.46,11.96,30.72"/>
	<path class="st5" d="M394.98,53.85c0,0,11.43,8.46,11.96,30.72"/>
	<path class="st3" d="M474.23,181.15c-8.15,0-15.35-1.66-21.59-4.98c-6.24-3.32-11.48-8.07-15.71-14.26
		c-4.23-6.18-7.44-13.57-9.6-22.17c-2.17-8.59-3.25-18.17-3.25-28.71c0-10.55,1.08-20.12,3.25-28.71c2.17-8.59,5.37-15.92,9.6-21.97
		c4.23-6.06,9.47-10.74,15.71-14.06c6.24-3.32,13.44-4.98,21.59-4.98c8.15,0,15.32,1.66,21.51,4.98c6.19,3.32,11.4,8.01,15.63,14.06
		c4.23,6.06,7.41,13.38,9.52,21.97c2.11,8.59,3.17,18.17,3.17,28.71c0,10.55-1.06,20.12-3.17,28.71
		c-2.12,8.59-5.29,15.99-9.52,22.17c-4.23,6.19-9.44,10.94-15.63,14.26C489.55,179.49,482.38,181.15,474.23,181.15 M435.98,111.03
		c0,9.12,0.82,17.29,2.46,24.51c1.64,7.23,4.07,13.38,7.3,18.46c3.23,5.08,7.19,8.98,11.9,11.72c4.71,2.74,10.18,4.1,16.43,4.1
		c6.14,0,11.59-1.37,16.35-4.1c4.76-2.74,8.76-6.64,11.99-11.72c3.23-5.08,5.66-11.23,7.3-18.46c1.64-7.23,2.46-15.4,2.46-24.51
		c0-9.11-0.82-17.29-2.46-24.51c-1.64-7.23-4.08-13.35-7.3-18.36c-3.23-5.01-7.22-8.85-11.99-11.52c-4.76-2.67-10.21-4-16.35-4
		c-6.24,0-11.72,1.34-16.43,4c-4.71,2.67-8.68,6.51-11.9,11.52c-3.23,5.01-5.66,11.13-7.3,18.36
		C436.79,93.75,435.98,101.92,435.98,111.03"/>
	<path class="st4" d="M474.23,181.15c-8.15,0-15.35-1.66-21.59-4.98c-6.24-3.32-11.48-8.07-15.71-14.26
		c-4.23-6.18-7.44-13.57-9.6-22.17c-2.17-8.59-3.25-18.17-3.25-28.71c0-10.55,1.08-20.12,3.25-28.71c2.17-8.59,5.37-15.92,9.6-21.97
		c4.23-6.06,9.47-10.74,15.71-14.06c6.24-3.32,13.44-4.98,21.59-4.98c8.15,0,15.32,1.66,21.51,4.98c6.19,3.32,11.4,8.01,15.63,14.06
		c4.23,6.06,7.41,13.38,9.52,21.97c2.11,8.59,3.17,18.17,3.17,28.71c0,10.55-1.06,20.12-3.17,28.71
		c-2.12,8.59-5.29,15.99-9.52,22.17c-4.23,6.19-9.44,10.94-15.63,14.26C489.55,179.49,482.38,181.15,474.23,181.15z M435.98,111.03
		c0,9.12,0.82,17.29,2.46,24.51c1.64,7.23,4.07,13.38,7.3,18.46c3.23,5.08,7.19,8.98,11.9,11.72c4.71,2.74,10.18,4.1,16.43,4.1
		c6.14,0,11.59-1.37,16.35-4.1c4.76-2.74,8.76-6.64,11.99-11.72c3.23-5.08,5.66-11.23,7.3-18.46c1.64-7.23,2.46-15.4,2.46-24.51
		c0-9.11-0.82-17.29-2.46-24.51c-1.64-7.23-4.08-13.35-7.3-18.36c-3.23-5.01-7.22-8.85-11.99-11.52c-4.76-2.67-10.21-4-16.35-4
		c-6.24,0-11.72,1.34-16.43,4c-4.71,2.67-8.68,6.51-11.9,11.52c-3.23,5.01-5.66,11.13-7.3,18.36
		C436.79,93.75,435.98,101.92,435.98,111.03z"/>
	<path class="st3" d="M659.95,77.14v19.04v49.42v3.22v5.37c0,1.95,0.02,3.91,0.08,5.86c0.05,1.95,0.13,3.58,0.24,4.88
		c0.1,0.65,0.4,1.14,0.87,1.47c0.48,0.33,1.14,0.62,1.98,0.88c0.42,0.13,1.03,0.33,1.83,0.59c0.79,0.26,1.53,0.52,2.22,0.78
		c0.69,0.26,1.32,0.56,1.91,0.88c0.58,0.33,0.92,0.56,1.03,0.68c0.42,0.65,0.61,1.79,0.56,3.42c-0.05,1.63-0.24,2.96-0.56,4h-31.75
		c-0.42-1.04-0.69-2.25-0.79-3.61c-0.11-1.37-0.11-2.5,0-3.42c0-0.26,1.19-0.75,3.57-1.46c2.38-0.71,5.05-1.4,8.02-2.05v-64.26
		c0-5.73,0.02-11.26,0.08-16.6c0.05-5.34,0.18-10.81,0.4-16.41l-40.16,107.82h-8.41l-40-106.45c0.1,3.13,0.18,6.32,0.24,9.57
		c0.05,3.26,0.1,6.42,0.16,9.47c0.05,3.06,0.08,5.93,0.08,8.59v6.93v61.33c2.96,0.65,5.56,1.34,7.78,2.05
		c2.22,0.72,3.33,1.21,3.33,1.46c0,0.91-0.05,2.05-0.16,3.42c-0.11,1.37-0.37,2.57-0.79,3.61h-29.21c-0.32-1.04-0.5-2.28-0.56-3.71
		c-0.05-1.43,0.13-2.47,0.56-3.13c0.1-0.13,0.45-0.36,1.03-0.68c0.58-0.32,1.21-0.62,1.9-0.88c0.69-0.26,1.4-0.52,2.14-0.78
		c0.74-0.26,1.37-0.46,1.9-0.59c0.85-0.26,1.51-0.55,1.99-0.88c0.47-0.32,0.76-0.81,0.87-1.46c0.1-1.3,0.18-2.93,0.24-4.88
		c0.05-1.95,0.08-3.91,0.08-5.86v-5.37v-3.22v-40.43c0-3.13,0.02-6.8,0.08-11.04c0.05-4.23,0.1-8.53,0.16-12.89
		c0.05-4.36,0.13-8.59,0.24-12.7c0.1-4.1,0.21-7.58,0.32-10.45l-1.27-2.73l-13.17-3.13c-0.32-0.78-0.45-2.05-0.4-3.81
		c0.05-1.76,0.18-3.16,0.4-4.2h24.6l43.02,114.46l42.86-114.46h23.49c0.42,1.04,0.69,2.22,0.79,3.52c0.1,1.3,0.16,2.48,0.16,3.52
		c0,0.13-0.4,0.36-1.19,0.68c-0.79,0.33-1.77,0.65-2.94,0.98c-1.17,0.33-2.46,0.68-3.89,1.07c-1.43,0.39-2.78,0.72-4.05,0.98
		l-2.22,3.71C659.84,65.13,659.95,71.09,659.95,77.14"/>
	<path class="st4" d="M659.95,77.14v19.04v49.42v3.22v5.37c0,1.95,0.02,3.91,0.08,5.86c0.05,1.95,0.13,3.58,0.24,4.88
		c0.1,0.65,0.4,1.14,0.87,1.47c0.48,0.33,1.14,0.62,1.98,0.88c0.42,0.13,1.03,0.33,1.83,0.59c0.79,0.26,1.53,0.52,2.22,0.78
		c0.69,0.26,1.32,0.56,1.91,0.88c0.58,0.33,0.92,0.56,1.03,0.68c0.42,0.65,0.61,1.79,0.56,3.42c-0.05,1.63-0.24,2.96-0.56,4h-31.75
		c-0.42-1.04-0.69-2.25-0.79-3.61c-0.11-1.37-0.11-2.5,0-3.42c0-0.26,1.19-0.75,3.57-1.46c2.38-0.71,5.05-1.4,8.02-2.05v-64.26
		c0-5.73,0.02-11.26,0.08-16.6c0.05-5.34,0.18-10.81,0.4-16.41l-40.16,107.82h-8.41l-40-106.45c0.1,3.13,0.18,6.32,0.24,9.57
		c0.05,3.26,0.1,6.42,0.16,9.47c0.05,3.06,0.08,5.93,0.08,8.59v6.93v61.33c2.96,0.65,5.56,1.34,7.78,2.05
		c2.22,0.72,3.33,1.21,3.33,1.46c0,0.91-0.05,2.05-0.16,3.42c-0.11,1.37-0.37,2.57-0.79,3.61h-29.21c-0.32-1.04-0.5-2.28-0.56-3.71
		c-0.05-1.43,0.13-2.47,0.56-3.13c0.1-0.13,0.45-0.36,1.03-0.68c0.58-0.32,1.21-0.62,1.9-0.88c0.69-0.26,1.4-0.52,2.14-0.78
		c0.74-0.26,1.37-0.46,1.9-0.59c0.85-0.26,1.51-0.55,1.99-0.88c0.47-0.32,0.76-0.81,0.87-1.46c0.1-1.3,0.18-2.93,0.24-4.88
		c0.05-1.95,0.08-3.91,0.08-5.86v-5.37v-3.22v-40.43c0-3.13,0.02-6.8,0.08-11.04c0.05-4.23,0.1-8.53,0.16-12.89
		c0.05-4.36,0.13-8.59,0.24-12.7c0.1-4.1,0.21-7.58,0.32-10.45l-1.27-2.73l-13.17-3.13c-0.32-0.78-0.45-2.05-0.4-3.81
		c0.05-1.76,0.18-3.16,0.4-4.2h24.6l43.02,114.46l42.86-114.46h23.49c0.42,1.04,0.69,2.22,0.79,3.52c0.1,1.3,0.16,2.48,0.16,3.52
		c0,0.13-0.4,0.36-1.19,0.68c-0.79,0.33-1.77,0.65-2.94,0.98c-1.17,0.33-2.46,0.68-3.89,1.07c-1.43,0.39-2.78,0.72-4.05,0.98
		l-2.22,3.71C659.84,65.13,659.95,71.09,659.95,77.14z"/>
	<path class="st3" d="M165.34,48.23c0,1.5-0.16,2.7-0.48,3.61l-6.19,2.54c-0.85,0.26-1.54,0.85-2.06,1.76
		c-0.53,0.91-1.01,1.82-1.43,2.73c-0.32,0.65-0.79,1.99-1.43,4c-0.64,2.02-1.38,4.36-2.22,7.03c-0.85,2.67-1.72,5.47-2.62,8.4
		c-0.9,2.93-1.77,5.7-2.62,8.3l-29.21,91.02h-8.25l-25.4-81.06l-26.03,81.06h-8.25L20.26,85.25c-0.85-2.6-1.72-5.31-2.62-8.11
		c-0.9-2.8-1.77-5.4-2.62-7.81c-0.85-2.41-1.59-4.56-2.22-6.45c-0.63-1.89-1.11-3.15-1.43-3.81c-0.32-0.91-0.77-1.89-1.35-2.93
		c-0.58-1.04-1.3-1.69-2.14-1.95l-5.87-2.15c-0.53-0.78-0.71-1.98-0.56-3.61c0.16-1.63,0.4-2.83,0.72-3.61h35.56
		c0.42,1.04,0.69,2.25,0.79,3.61c0.1,1.37,0.16,2.51,0.16,3.42c0,0.13-0.42,0.36-1.27,0.68c-0.85,0.33-1.93,0.68-3.25,1.07
		c-1.32,0.39-2.75,0.78-4.29,1.17c-1.54,0.39-2.99,0.72-4.37,0.98v2.34c0.1,0.65,0.34,1.73,0.71,3.22c0.37,1.5,0.82,3.29,1.35,5.37
		c0.53,2.08,1.14,4.36,1.83,6.84c0.69,2.48,1.4,4.95,2.14,7.42l12.7,42.97l8.89,32.23h3.49l8.73-31.64l13.18-43.95
		c-0.74-2.34-1.51-4.65-2.3-6.93c-0.79-2.28-1.54-4.4-2.22-6.35c-0.69-1.95-1.3-3.64-1.83-5.08c-0.53-1.43-0.9-2.47-1.11-3.13
		c-0.32-0.91-0.77-1.89-1.35-2.93c-0.58-1.04-1.3-1.69-2.14-1.95l-5.87-2.15c-0.53-0.78-0.71-1.98-0.56-3.61
		c0.16-1.63,0.4-2.83,0.72-3.61h35.56c0.42,1.04,0.69,2.25,0.79,3.61c0.1,1.37,0.16,2.51,0.16,3.42c0,0.13-0.42,0.36-1.27,0.68
		c-0.85,0.33-1.93,0.68-3.25,1.07c-1.32,0.39-2.75,0.78-4.28,1.17c-1.54,0.39-2.99,0.72-4.37,0.98v2.34
		c0.11,0.65,0.34,1.73,0.72,3.22c0.37,1.5,0.82,3.29,1.35,5.37c0.53,2.08,1.14,4.36,1.82,6.84c0.69,2.48,1.4,4.95,2.14,7.42
		l12.7,43.17l8.89,32.03h3.49l8.73-31.64l11.9-40.82c0.74-2.47,1.48-5.11,2.22-7.91c0.74-2.8,1.43-5.44,2.06-7.91
		c0.64-2.47,1.14-4.59,1.51-6.35c0.37-1.76,0.61-2.9,0.71-3.42v-2.74c-1.38-0.39-2.8-0.78-4.29-1.17c-1.48-0.39-2.86-0.75-4.13-1.07
		c-1.27-0.32-2.3-0.65-3.1-0.98c-0.79-0.32-1.19-0.55-1.19-0.68c0-0.91,0.05-1.98,0.16-3.22c0.1-1.24,0.37-2.38,0.79-3.42h33.17
		C165.19,45.6,165.34,46.74,165.34,48.23"/>
	<path class="st4" d="M165.34,48.23c0,1.5-0.16,2.7-0.48,3.61l-6.19,2.54c-0.85,0.26-1.54,0.85-2.06,1.76
		c-0.53,0.91-1.01,1.82-1.43,2.73c-0.32,0.65-0.79,1.99-1.43,4c-0.64,2.02-1.38,4.36-2.22,7.03c-0.85,2.67-1.72,5.47-2.62,8.4
		c-0.9,2.93-1.77,5.7-2.62,8.3l-29.21,91.02h-8.25l-25.4-81.06l-26.03,81.06h-8.25L20.26,85.25c-0.85-2.6-1.72-5.31-2.62-8.11
		c-0.9-2.8-1.77-5.4-2.62-7.81c-0.85-2.41-1.59-4.56-2.22-6.45c-0.63-1.89-1.11-3.15-1.43-3.81c-0.32-0.91-0.77-1.89-1.35-2.93
		c-0.58-1.04-1.3-1.69-2.14-1.95l-5.87-2.15c-0.53-0.78-0.71-1.98-0.56-3.61c0.16-1.63,0.4-2.83,0.72-3.61h35.56
		c0.42,1.04,0.69,2.25,0.79,3.61c0.1,1.37,0.16,2.51,0.16,3.42c0,0.13-0.42,0.36-1.27,0.68c-0.85,0.33-1.93,0.68-3.25,1.07
		c-1.32,0.39-2.75,0.78-4.29,1.17c-1.54,0.39-2.99,0.72-4.37,0.98v2.34c0.1,0.65,0.34,1.73,0.71,3.22c0.37,1.5,0.82,3.29,1.35,5.37
		c0.53,2.08,1.14,4.36,1.83,6.84c0.69,2.48,1.4,4.95,2.14,7.42l12.7,42.97l8.89,32.23h3.49l8.73-31.64l13.18-43.95
		c-0.74-2.34-1.51-4.65-2.3-6.93c-0.79-2.28-1.54-4.4-2.22-6.35c-0.69-1.95-1.3-3.64-1.83-5.08c-0.53-1.43-0.9-2.47-1.11-3.13
		c-0.32-0.91-0.77-1.89-1.35-2.93c-0.58-1.04-1.3-1.69-2.14-1.95l-5.87-2.15c-0.53-0.78-0.71-1.98-0.56-3.61
		c0.16-1.63,0.4-2.83,0.72-3.61h35.56c0.42,1.04,0.69,2.25,0.79,3.61c0.1,1.37,0.16,2.51,0.16,3.42c0,0.13-0.42,0.36-1.27,0.68
		c-0.85,0.33-1.93,0.68-3.25,1.07c-1.32,0.39-2.75,0.78-4.28,1.17c-1.54,0.39-2.99,0.72-4.37,0.98v2.34
		c0.11,0.65,0.34,1.73,0.72,3.22c0.37,1.5,0.82,3.29,1.35,5.37c0.53,2.08,1.14,4.36,1.82,6.84c0.69,2.48,1.4,4.95,2.14,7.42
		l12.7,43.17l8.89,32.03h3.49l8.73-31.64l11.9-40.82c0.74-2.47,1.48-5.11,2.22-7.91c0.74-2.8,1.43-5.44,2.06-7.91
		c0.64-2.47,1.14-4.59,1.51-6.35c0.37-1.76,0.61-2.9,0.71-3.42v-2.74c-1.38-0.39-2.8-0.78-4.29-1.17c-1.48-0.39-2.86-0.75-4.13-1.07
		c-1.27-0.32-2.3-0.65-3.1-0.98c-0.79-0.32-1.19-0.55-1.19-0.68c0-0.91,0.05-1.98,0.16-3.22c0.1-1.24,0.37-2.38,0.79-3.42h33.17
		C165.19,45.6,165.34,46.74,165.34,48.23z"/>
	<path class="st3" d="M173.36,173.93c-0.06-1.43,0.13-2.47,0.56-3.13c0.1-0.13,0.45-0.36,1.03-0.68c0.58-0.32,1.27-0.62,2.06-0.88
		c0.79-0.26,1.56-0.52,2.3-0.78c0.74-0.26,1.37-0.46,1.9-0.59c0.85-0.26,1.51-0.55,1.98-0.88c0.48-0.32,0.77-0.81,0.87-1.46
		c0.1-1.3,0.18-2.93,0.24-4.88c0.05-1.95,0.08-3.87,0.08-5.76v-5.08v-3.03V55.36c-2.96-0.65-5.61-1.33-7.94-2.05
		c-2.33-0.71-3.49-1.2-3.49-1.47c0-0.91,0.05-2.05,0.16-3.42c0.1-1.37,0.37-2.57,0.79-3.61h32.22c0.32,1.04,0.5,2.28,0.55,3.71
		c0.05,1.43-0.13,2.48-0.55,3.13c-0.11,0.26-0.45,0.52-1.03,0.78c-0.58,0.26-1.24,0.52-1.98,0.78c-0.74,0.26-1.51,0.52-2.3,0.78
		c-0.79,0.26-1.46,0.46-1.98,0.59c-0.85,0.26-1.51,0.56-1.99,0.88c-0.48,0.33-0.77,0.81-0.87,1.46c-0.11,1.3-0.19,2.93-0.24,4.88
		c-0.05,1.95-0.08,3.88-0.08,5.76v5.08v3.03v91.41c2.96,0.65,5.61,1.34,7.94,2.05c2.33,0.72,3.49,1.21,3.49,1.46
		c0,0.91-0.05,2.05-0.16,3.42c-0.11,1.37-0.37,2.57-0.79,3.61h-32.22C173.6,176.59,173.41,175.36,173.36,173.93"/>
	<path class="st4" d="M173.36,173.93c-0.06-1.43,0.13-2.47,0.56-3.13c0.1-0.13,0.45-0.36,1.03-0.68c0.58-0.32,1.27-0.62,2.06-0.88
		c0.79-0.26,1.56-0.52,2.3-0.78c0.74-0.26,1.37-0.46,1.9-0.59c0.85-0.26,1.51-0.55,1.98-0.88c0.48-0.32,0.77-0.81,0.87-1.46
		c0.1-1.3,0.18-2.93,0.24-4.88c0.05-1.95,0.08-3.87,0.08-5.76v-5.08v-3.03V55.36c-2.96-0.65-5.61-1.33-7.94-2.05
		c-2.33-0.71-3.49-1.2-3.49-1.47c0-0.91,0.05-2.05,0.16-3.42c0.1-1.37,0.37-2.57,0.79-3.61h32.22c0.32,1.04,0.5,2.28,0.55,3.71
		c0.05,1.43-0.13,2.48-0.55,3.13c-0.11,0.26-0.45,0.52-1.03,0.78c-0.58,0.26-1.24,0.52-1.98,0.78c-0.74,0.26-1.51,0.52-2.3,0.78
		c-0.79,0.26-1.46,0.46-1.98,0.59c-0.85,0.26-1.51,0.56-1.99,0.88c-0.48,0.33-0.77,0.81-0.87,1.46c-0.11,1.3-0.19,2.93-0.24,4.88
		c-0.05,1.95-0.08,3.88-0.08,5.76v5.08v3.03v91.41c2.96,0.65,5.61,1.34,7.94,2.05c2.33,0.72,3.49,1.21,3.49,1.46
		c0,0.91-0.05,2.05-0.16,3.42c-0.11,1.37-0.37,2.57-0.79,3.61h-32.22C173.6,176.59,173.41,175.36,173.36,173.93z"/>
	<path class="st3" d="M255.03,181.15c-4.45,0-8.76-0.46-12.94-1.37c-4.18-0.91-7.91-2.08-11.19-3.52l-7.94-3.91
		c-1.27-0.52-1.9-1.43-1.9-2.73v-26.96c1.9-0.52,3.7-0.52,5.4,0l3.65,15.63c0.85,3.52,3.73,6.35,8.65,8.5
		c4.92,2.15,10.82,3.22,17.7,3.22c8.68,0,15-2.21,18.97-6.64c3.97-4.43,5.95-10.48,5.95-18.16c0-3.91-0.5-7.16-1.51-9.77
		c-1.01-2.6-2.3-4.82-3.89-6.64c-1.59-1.82-3.41-3.32-5.48-4.49c-2.06-1.17-4.1-2.28-6.11-3.32l-18.73-9.38
		c-2.86-1.43-5.69-3.25-8.49-5.47c-2.81-2.21-5.35-4.79-7.62-7.72c-2.28-2.93-4.13-6.25-5.56-9.96c-1.43-3.71-2.14-7.84-2.14-12.4
		c0-4.04,0.69-8.14,2.06-12.31c1.37-4.17,3.49-7.91,6.35-11.23c2.86-3.32,6.45-6.02,10.79-8.11c4.34-2.08,9.47-3.13,15.4-3.13
		c4.23,0,8.26,0.46,12.06,1.37c3.81,0.91,7.67,2.28,11.59,4.1l7.94,3.52c0.53,0.26,0.87,0.55,1.03,0.88
		c0.16,0.33,0.24,0.88,0.24,1.66v24.41c-1.9,0.52-3.65,0.52-5.24,0l-3.81-12.69c-1.06-3.39-3.81-6.25-8.25-8.6
		c-4.44-2.34-9.84-3.52-16.19-3.52c-7.94,0-13.65,1.95-17.14,5.86c-3.49,3.91-5.24,8.99-5.24,15.24c0,3.78,0.53,7,1.59,9.67
		c1.06,2.67,2.46,4.95,4.21,6.84c1.75,1.89,3.76,3.52,6.03,4.88c2.27,1.37,4.63,2.7,7.06,4l17.14,8.79
		c2.96,1.56,5.87,3.39,8.73,5.47c2.86,2.08,5.37,4.53,7.54,7.32c2.17,2.8,3.91,6.05,5.24,9.77c1.32,3.71,1.98,7.98,1.98,12.79
		c0,4.95-0.77,9.7-2.3,14.26c-1.54,4.56-3.86,8.6-6.98,12.11c-3.12,3.52-7.06,6.35-11.83,8.5
		C267.09,180.08,261.48,181.15,255.03,181.15"/>
	<path class="st4" d="M255.03,181.15c-4.45,0-8.76-0.46-12.94-1.37c-4.18-0.91-7.91-2.08-11.19-3.52l-7.94-3.91
		c-1.27-0.52-1.9-1.43-1.9-2.73v-26.96c1.9-0.52,3.7-0.52,5.4,0l3.65,15.63c0.85,3.52,3.73,6.35,8.65,8.5
		c4.92,2.15,10.82,3.22,17.7,3.22c8.68,0,15-2.21,18.97-6.64c3.97-4.43,5.95-10.48,5.95-18.16c0-3.91-0.5-7.16-1.51-9.77
		c-1.01-2.6-2.3-4.82-3.89-6.64c-1.59-1.82-3.41-3.32-5.48-4.49c-2.06-1.17-4.1-2.28-6.11-3.32l-18.73-9.38
		c-2.86-1.43-5.69-3.25-8.49-5.47c-2.81-2.21-5.35-4.79-7.62-7.72c-2.28-2.93-4.13-6.25-5.56-9.96c-1.43-3.71-2.14-7.84-2.14-12.4
		c0-4.04,0.69-8.14,2.06-12.31c1.37-4.17,3.49-7.91,6.35-11.23c2.86-3.32,6.45-6.02,10.79-8.11c4.34-2.08,9.47-3.13,15.4-3.13
		c4.23,0,8.26,0.46,12.06,1.37c3.81,0.91,7.67,2.28,11.59,4.1l7.94,3.52c0.53,0.26,0.87,0.55,1.03,0.88
		c0.16,0.33,0.24,0.88,0.24,1.66v24.41c-1.9,0.52-3.65,0.52-5.24,0l-3.81-12.69c-1.06-3.39-3.81-6.25-8.25-8.6
		c-4.44-2.34-9.84-3.52-16.19-3.52c-7.94,0-13.65,1.95-17.14,5.86c-3.49,3.91-5.24,8.99-5.24,15.24c0,3.78,0.53,7,1.59,9.67
		c1.06,2.67,2.46,4.95,4.21,6.84c1.75,1.89,3.76,3.52,6.03,4.88c2.27,1.37,4.63,2.7,7.06,4l17.14,8.79
		c2.96,1.56,5.87,3.39,8.73,5.47c2.86,2.08,5.37,4.53,7.54,7.32c2.17,2.8,3.91,6.05,5.24,9.77c1.32,3.71,1.98,7.98,1.98,12.79
		c0,4.95-0.77,9.7-2.3,14.26c-1.54,4.56-3.86,8.6-6.98,12.11c-3.12,3.52-7.06,6.35-11.83,8.5
		C267.09,180.08,261.48,181.15,255.03,181.15z"/>
	<path class="st6" d="M400.27,79.69c0,18.72-16.99,33.89-37.95,33.89c-20.96,0-37.95-15.18-37.95-33.89s16.99-33.89,37.95-33.89
		C383.28,45.8,400.27,60.98,400.27,79.69"/>
	<path class="st7" d="M400.27,79.69c0,18.72-16.99,33.89-37.95,33.89c-20.96,0-37.95-15.18-37.95-33.89s16.99-33.89,37.95-33.89
		C383.28,45.8,400.27,60.98,400.27,79.69z"/>
	<path class="st6" d="M394.82,79.07c0,15.65-14.51,28.33-32.4,28.33c-17.89,0-32.4-12.68-32.4-28.33s14.51-28.33,32.4-28.33
		C380.31,50.74,394.82,63.43,394.82,79.07"/>
	<polygon class="st8" points="362.42,96.04 356.75,86.6 368.09,86.6 	"/>
	<polygon class="st2" points="362.42,96.04 356.75,86.6 368.09,86.6 	"/>
	<path class="st0" d="M363.2,75.25c6.35-9.6,16.78-13.83,25.44-10.82c6.99,2.43,10.53,8.77,11.57,10.82"/>
	<path class="st0" d="M362.16,75.27c-6.35-9.6-16.78-13.83-25.44-10.82c-6.99,2.43-10.53,8.77-11.57,10.82"/>
	<path class="st0" d="M337.02,131.55c0,0,6.56,19.13,16.71,0"/>
	<path class="st0" d="M353.94,131.55c0,0,6.56,19.13,16.71,0"/>
	<path class="st0" d="M370.65,131.55c0,0,6.56,19.13,16.71,0"/>
	<path class="st0" d="M327.36,166.57c0,0,3.77-52.54,33.77-52.54c30,0,31.93,36.82,31.93,36.82"/>
	<path class="st3" d="M355.81,79.38c0,5.83-4.73,10.55-10.55,10.55s-10.55-4.72-10.55-10.55c0-5.83,4.73-10.55,10.55-10.55
		S355.81,73.55,355.81,79.38"/>
	<path class="st3" d="M390.21,79.21c0,5.83-4.73,10.55-10.55,10.55s-10.55-4.72-10.55-10.55c0-5.83,4.72-10.55,10.55-10.55
		S390.21,73.38,390.21,79.21"/>
	<path class="st6" d="M346.77,74.45c0,1.6-1.3,2.89-2.89,2.89c-1.6,0-2.89-1.3-2.89-2.89c0-1.6,1.3-2.89,2.89-2.89
		C345.47,71.55,346.77,72.85,346.77,74.45"/>
	<path class="st6" d="M380.6,74.45c0,1.6-1.3,2.89-2.89,2.89s-2.89-1.3-2.89-2.89c0-1.6,1.3-2.89,2.89-2.89S380.6,72.85,380.6,74.45
		"/>
	<g class="st9">
		<text transform="matrix(1 0 0 1 509.7715 20.5777)"><tspan x="0" y="0" class="st10 st11 st12">meet </tspan><tspan x="84" y="0" class="st10 st11 st12">y</tspan><tspan x="102.01" y="0" class="st10 st11 st12">our</tspan></text>
	</g>
	<path class="st3" d="M390.71,56.42c0.39,0.4,0.76,0.82,1.1,1.26c-0.13-0.17-0.26-0.34-0.39-0.51c0.72,0.95,1.32,1.98,1.79,3.08
		c-0.08-0.2-0.17-0.4-0.25-0.6c0.27,0.65,0.49,1.31,0.66,1.99c0.32,1.27,1.81,2.15,3.07,1.75c1.31-0.43,2.09-1.72,1.75-3.08
		c-0.7-2.79-2.18-5.38-4.19-7.43c-0.92-0.93-2.63-0.99-3.53,0C389.79,53.89,389.73,55.42,390.71,56.42"/>
	<path class="st3" d="M400.15,73.99c0.29,3.72,0.72,7.43,1.26,11.12c0.08,0.58,0.67,1.21,1.15,1.49c0.54,0.31,1.33,0.45,1.93,0.25
		c0.6-0.2,1.19-0.57,1.49-1.15c0.33-0.63,0.36-1.22,0.25-1.93c-0.07-0.44-0.13-0.88-0.19-1.33c-0.01-0.1-0.03-0.21-0.04-0.31
		c0.04,0.29,0.05,0.34,0.02,0.15c-0.03-0.21-0.05-0.41-0.08-0.61c-0.11-0.85-0.21-1.71-0.31-2.56c-0.19-1.71-0.35-3.42-0.48-5.14
		c-0.1-1.3-1.08-2.56-2.5-2.5C401.38,71.54,400.04,72.59,400.15,73.99"/>
	<path class="st3" d="M327.52,53.81c0.01,0.26,0,0.52-0.03,0.78c0.03-0.22,0.06-0.44,0.09-0.66c-0.05,0.38-0.16,0.75-0.31,1.11
		c0.08-0.2,0.17-0.4,0.25-0.6c-0.15,0.34-0.33,0.65-0.55,0.95c0.13-0.17,0.26-0.34,0.39-0.51c-0.13,0.17-0.27,0.32-0.42,0.47
		c-0.46,0.44-0.73,1.14-0.73,1.77c-0.01,0.34,0.06,0.67,0.21,0.96c0.1,0.31,0.27,0.58,0.52,0.81c0.48,0.44,1.1,0.76,1.77,0.73
		c0.67-0.03,1.28-0.26,1.77-0.73c0.36-0.35,0.68-0.77,0.96-1.18c0.29-0.43,0.49-0.92,0.68-1.4c0.12-0.29,0.2-0.6,0.26-0.9
		c0.09-0.52,0.17-1.05,0.14-1.58c-0.03-0.66-0.26-1.29-0.73-1.77c-0.23-0.24-0.49-0.42-0.8-0.52c-0.3-0.16-0.62-0.23-0.96-0.22
		c-0.65,0.03-1.32,0.24-1.77,0.73C327.82,52.52,327.49,53.14,327.52,53.81"/>
</g>
</svg>
